<svg width="128" height="22" viewBox="0 0 128 22" fill="none" xmlns="http://www.w3.org/2000/svg">
<path d="M5.16 13.216H12.16V8.96H5.16V5.712H12.86V1.4H0.68V21H13V16.688H5.16V13.216ZM19.6437 20.608C20.6797 19.572 20.6797 17.892 19.6437 16.856C18.6077 15.82 16.9277 15.82 15.8917 16.856C14.8557 17.892 14.8557 19.572 15.8917 20.608C16.9277 21.644 18.6077 21.644 19.6437 20.608Z" fill="#E5A823"/>
<path d="M30.2353 21.392C32.3913 21.392 34.1553 20.86 35.4993 19.796C36.8433 18.704 37.5153 17.248 37.5153 15.372C37.5153 13.776 36.8713 12.488 36.1713 11.732C35.8353 11.34 35.3313 10.976 34.6593 10.64C34.0153 10.276 33.4553 10.024 33.0353 9.884L31.2153 9.296C29.7873 8.876 28.8353 8.484 28.3593 8.12C27.9113 7.756 27.6873 7.336 27.6873 6.86C27.6873 6.048 28.4433 5.376 29.7873 5.376C31.4953 5.376 32.4753 6.16 33.1753 7.644L36.9553 5.432C35.5273 2.548 33.0073 1.008 29.7873 1.008C27.9953 1.008 26.4553 1.54 25.1393 2.632C23.8513 3.724 23.2073 5.152 23.2073 6.972C23.2073 8.764 23.8513 10.164 24.9993 11.088C26.2033 11.984 27.3233 12.488 28.9753 12.936C30.5433 13.356 31.6073 13.748 32.1673 14.084C32.7553 14.392 33.0353 14.84 33.0353 15.428C33.0353 16.492 32.1393 17.024 30.3753 17.024C28.4153 17.024 27.0433 16.128 26.2593 14.308L22.3953 16.548C23.5153 19.544 26.2313 21.392 30.2353 21.392ZM51.5982 19.264C53.0262 17.836 53.7542 16.072 53.7542 14C53.7542 11.928 53.0262 10.192 51.5982 8.764C50.1702 7.336 48.4062 6.608 46.3342 6.608C44.2622 6.608 42.4982 7.336 41.0702 8.764C39.6422 10.192 38.9142 11.928 38.9142 14C38.9142 16.072 39.6422 17.836 41.0702 19.264C42.4982 20.692 44.2622 21.392 46.3342 21.392C48.4062 21.392 50.1702 20.692 51.5982 19.264ZM44.0382 16.38C43.4222 15.764 43.1142 14.98 43.1142 14C43.1142 13.02 43.4222 12.236 44.0382 11.62C44.6542 11.004 45.4102 10.696 46.3342 10.696C47.2582 10.696 48.0142 11.004 48.6302 11.62C49.2462 12.236 49.5542 13.02 49.5542 14C49.5542 14.98 49.2462 15.764 48.6302 16.38C48.0142 16.996 47.2582 17.304 46.3342 17.304C45.4102 17.304 44.6542 16.996 44.0382 16.38ZM60.3298 21V0.559999H56.1298V21H60.3298ZM72.4473 14.644C72.4473 16.548 71.4393 17.528 69.8433 17.528C68.4153 17.528 67.4073 16.632 67.4073 14.98V7H63.2073V15.596C63.2073 17.416 63.7113 18.816 64.6913 19.852C65.6993 20.888 66.9593 21.392 68.4433 21.392C70.2633 21.392 71.6073 20.832 72.4473 19.684V21H76.6473V7H72.4473V14.644ZM87.9315 7H85.0475V3.08L80.8475 4.34V7H78.6075V11.032H80.8475V15.988C80.8475 18.032 81.3515 19.432 82.3875 20.244C83.4235 21.028 85.2715 21.28 87.9315 21V17.192C85.8875 17.304 85.0475 17.108 85.0475 15.988V11.032H87.9315V7ZM94.447 5.068C95.427 4.088 95.427 2.604 94.447 1.652C93.467 0.699999 91.955 0.699999 90.947 1.652C89.995 2.604 89.995 4.088 90.947 5.068C91.955 5.992 93.467 5.992 94.447 5.068ZM94.783 21V7H90.583V21H94.783ZM109.84 19.264C111.268 17.836 111.996 16.072 111.996 14C111.996 11.928 111.268 10.192 109.84 8.764C108.412 7.336 106.648 6.608 104.576 6.608C102.504 6.608 100.74 7.336 99.3124 8.764C97.8844 10.192 97.1564 11.928 97.1564 14C97.1564 16.072 97.8844 17.836 99.3124 19.264C100.74 20.692 102.504 21.392 104.576 21.392C106.648 21.392 108.412 20.692 109.84 19.264ZM102.28 16.38C101.664 15.764 101.356 14.98 101.356 14C101.356 13.02 101.664 12.236 102.28 11.62C102.896 11.004 103.652 10.696 104.576 10.696C105.5 10.696 106.256 11.004 106.872 11.62C107.488 12.236 107.796 13.02 107.796 14C107.796 14.98 107.488 15.764 106.872 16.38C106.256 16.996 105.5 17.304 104.576 17.304C103.652 17.304 102.896 16.996 102.28 16.38ZM122.576 6.608C120.756 6.608 119.412 7.168 118.572 8.316V7H114.372V21H118.572V13.356C118.572 11.452 119.58 10.472 121.176 10.472C122.604 10.472 123.612 11.368 123.612 13.02V21H127.812V12.404C127.812 10.584 127.308 9.184 126.3 8.148C125.32 7.112 124.06 6.608 122.576 6.608Z" fill="#242424"/>
</svg>
